<svg width="25" height="19" viewBox="0 0 25 19" fill="none" xmlns="http://www.w3.org/2000/svg">
<path d="M20.5853 2.21858C19.06 1.51872 17.4244 1.0031 15.7143 0.707782C15.6831 0.702082 15.652 0.716326 15.636 0.744813C15.4256 1.11895 15.1926 1.60703 15.0295 1.99067C13.1901 1.71529 11.3602 1.71529 9.55852 1.99067C9.39532 1.59851 9.15385 1.11895 8.94255 0.744813C8.92651 0.717276 8.8954 0.703033 8.86425 0.707782C7.15506 1.00216 5.51944 1.51778 3.99323 2.21858C3.98002 2.22428 3.96869 2.23378 3.96118 2.24612C0.858757 6.88107 0.00887418 11.4021 0.425798 15.8671C0.427685 15.8889 0.439947 15.9098 0.456926 15.9231C2.50381 17.4263 4.48658 18.3389 6.43252 18.9437C6.46366 18.9532 6.49666 18.9418 6.51648 18.9162C6.97679 18.2876 7.38712 17.6248 7.73894 16.9277C7.7597 16.8869 7.73988 16.8385 7.69744 16.8223C7.0466 16.5755 6.42686 16.2744 5.83071 15.9326C5.78356 15.9051 5.77978 15.8376 5.82316 15.8053C5.94861 15.7113 6.0741 15.6135 6.19388 15.5148C6.21556 15.4967 6.24576 15.4929 6.27124 15.5043C10.1877 17.2924 14.4277 17.2924 18.2979 15.5043C18.3233 15.492 18.3535 15.4958 18.3762 15.5138C18.496 15.6126 18.6214 15.7113 18.7478 15.8053C18.7912 15.8376 18.7884 15.9051 18.7412 15.9326C18.1451 16.2811 17.5253 16.5755 16.8735 16.8214C16.8311 16.8375 16.8122 16.8869 16.833 16.9277C17.1924 17.6238 17.6027 18.2866 18.0545 18.9152C18.0734 18.9418 18.1073 18.9532 18.1385 18.9437C20.0938 18.3389 22.0766 17.4263 24.1235 15.9231C24.1414 15.9098 24.1527 15.8899 24.1546 15.868C24.6536 10.706 23.3189 6.22206 20.6164 2.24706C20.6098 2.23378 20.5985 2.22428 20.5853 2.21858ZM8.32379 13.1484C7.14468 13.1484 6.17312 12.0659 6.17312 10.7364C6.17312 9.40698 7.12584 8.32447 8.32379 8.32447C9.53115 8.32447 10.4933 9.41648 10.4744 10.7364C10.4744 12.0659 9.52171 13.1484 8.32379 13.1484ZM16.2755 13.1484C15.0964 13.1484 14.1249 12.0659 14.1249 10.7364C14.1249 9.40698 15.0776 8.32447 16.2755 8.32447C17.4829 8.32447 18.445 9.41648 18.4262 10.7364C18.4262 12.0659 17.4829 13.1484 16.2755 13.1484Z" fill="#4D4A5F"/>
</svg>
