<svg width="16" height="16" viewBox="0 0 16 16" fill="none" xmlns="http://www.w3.org/2000/svg">
<path fill-rule="evenodd" clip-rule="evenodd" d="M8 12C10.2091 12 12 10.2091 12 8C12 5.79086 10.2091 4 8 4C5.79086 4 4 5.79086 4 8C4 10.2091 5.79086 12 8 12ZM8 10.75C9.51878 10.75 10.75 9.51878 10.75 8C10.75 6.48122 9.51878 5.25 8 5.25C6.48122 5.25 5.25 6.48122 5.25 8C5.25 9.51878 6.48122 10.75 8 10.75Z" fill="white"/>
<path d="M12 4.5C12.5523 4.5 13 4.05228 13 3.5C13 2.94772 12.5523 2.5 12 2.5C11.4477 2.5 11 2.94772 11 3.5C11 4.05228 11.4477 4.5 12 4.5Z" fill="white"/>
<path fill-rule="evenodd" clip-rule="evenodd" d="M5 0C2.23858 0 0 2.23858 0 5V11C0 13.7614 2.23858 16 5 16H11C13.7614 16 16 13.7614 16 11V5C16 2.23858 13.7614 0 11 0H5ZM11 1.25H5C2.92893 1.25 1.25 2.92893 1.25 5V11C1.25 13.0711 2.92893 14.75 5 14.75H11C13.0711 14.75 14.75 13.0711 14.75 11V5C14.75 2.92893 13.0711 1.25 11 1.25Z" fill="white"/>
</svg>
