<svg width="31" height="22" viewBox="0 0 31 22" fill="none" xmlns="http://www.w3.org/2000/svg">
<path d="M0 3C0 1.34315 1.34315 0 3 0H28C29.6569 0 31 1.34315 31 3V19C31 20.6569 29.6569 22 28 22H3C1.34315 22 0 20.6569 0 19V3Z" fill="#191C1B"/>
<path d="M12.3125 17V8.59062H9.69688V17H12.3125ZM10.9906 7.46562C11.8344 7.46562 12.5094 6.7625 12.5094 5.91875C12.5094 5.10312 11.8344 4.42812 10.9906 4.42812C10.175 4.42812 9.5 5.10312 9.5 5.91875C9.5 6.7625 10.175 7.46562 10.9906 7.46562ZM22.0719 17H22.1V12.3875C22.1 10.1375 21.5938 8.39375 18.95 8.39375C17.6844 8.39375 16.8406 9.09687 16.475 9.74375H16.4469V8.59062H13.9438V17H16.5594V12.8375C16.5594 11.7406 16.7563 10.7 18.1063 10.7C19.4563 10.7 19.4844 11.9375 19.4844 12.9219V17H22.0719Z" fill="white"/>
</svg>
