<svg width="25" height="20" viewBox="0 0 25 20" fill="none" xmlns="http://www.w3.org/2000/svg">
<path d="M7.99395 19.7623C17.0222 19.7623 21.9617 12.2807 21.9617 5.79462C21.9617 5.58429 21.957 5.36929 21.9476 5.15896C22.9085 4.46407 23.7377 3.60335 24.3963 2.61725C23.5015 3.0154 22.5513 3.27543 21.5784 3.38846C22.6028 2.7744 23.3698 1.80976 23.7373 0.673342C22.7736 1.24448 21.7197 1.64737 20.6207 1.86474C19.8802 1.07797 18.9012 0.557028 17.835 0.382468C16.7688 0.207907 15.6748 0.389447 14.7221 0.899019C13.7694 1.40859 13.0111 2.21781 12.5644 3.20157C12.1178 4.18533 12.0076 5.28884 12.251 6.34147C10.2996 6.24355 8.39058 5.73663 6.64767 4.85358C4.90476 3.97053 3.36688 2.73106 2.13372 1.21552C1.50696 2.29612 1.31517 3.57483 1.59733 4.79175C1.87949 6.00868 2.61442 7.07251 3.65276 7.76704C2.87324 7.74229 2.11079 7.53241 1.42842 7.15475V7.21551C1.42772 8.34951 1.81976 9.44877 2.53789 10.3264C3.25602 11.2041 4.25593 11.8059 5.36764 12.0297C4.64554 12.2273 3.88766 12.2561 3.15265 12.1138C3.46635 13.0891 4.0767 13.9421 4.89852 14.5537C5.72034 15.1654 6.71262 15.5053 7.73688 15.5258C5.99799 16.8918 3.84996 17.6326 1.63874 17.6291C1.2466 17.6285 0.854849 17.6045 0.465576 17.5571C2.71193 18.9983 5.32505 19.7637 7.99395 19.7623Z" fill="#4D4A5F"/>
</svg>
